<?xml version="1.0" standalone="no"?>
<!DOCTYPE svg PUBLIC "-//W3C//DTD SVG 20010904//EN"
 "http://www.w3.org/TR/2001/REC-SVG-20010904/DTD/svg10.dtd">
<svg version="1.0" xmlns="http://www.w3.org/2000/svg"
 width="2560.000000pt" height="2560.000000pt" viewBox="0 0 2560.000000 2560.000000"
 preserveAspectRatio="xMidYMid meet">
<metadata>
Created by potrace 1.14, written by Peter Selinger 2001-2017
</metadata>
<g transform="translate(0.000000,2560.000000) scale(0.100000,-0.100000)"
fill="#000000" stroke="none">
<path d="M11997 24314 c-1 -1 -114 -5 -252 -8 -302 -8 -446 -15 -630 -31 -27
-2 -81 -7 -120 -10 -38 -3 -95 -8 -125 -11 -30 -3 -71 -7 -90 -9 -83 -8 -310
-34 -350 -41 -14 -2 -47 -6 -75 -9 -27 -3 -90 -12 -140 -20 -49 -7 -110 -17
-135 -20 -25 -4 -97 -15 -160 -26 -178 -31 -195 -34 -325 -60 -55 -12 -108
-22 -118 -24 -10 -2 -26 -6 -35 -9 -9 -3 -30 -8 -47 -10 -16 -3 -91 -20 -165
-37 -74 -17 -160 -37 -190 -44 -91 -21 -315 -81 -480 -130 -85 -25 -162 -47
-170 -49 -54 -14 -538 -173 -565 -186 -11 -5 -65 -25 -120 -45 -55 -19 -109
-40 -120 -45 -11 -5 -50 -21 -88 -34 -37 -14 -82 -32 -100 -40 -17 -8 -117
-50 -222 -94 -104 -44 -225 -96 -268 -116 -42 -20 -79 -36 -82 -36 -10 -2
-485 -242 -580 -293 -195 -105 -648 -368 -665 -387 -3 -3 -34 -23 -70 -44 -52
-31 -246 -161 -444 -296 -12 -8 -36 -24 -52 -35 -88 -60 -448 -333 -525 -399
-20 -17 -78 -65 -129 -106 -51 -41 -102 -84 -114 -95 -13 -11 -48 -42 -80 -69
-31 -27 -70 -61 -85 -75 -16 -14 -66 -60 -112 -101 -178 -161 -585 -565 -714
-710 -32 -36 -77 -85 -99 -110 -49 -54 -217 -249 -264 -308 -19 -22 -43 -51
-54 -64 -52 -60 -245 -311 -356 -463 -56 -77 -105 -144 -109 -150 -5 -5 -63
-91 -129 -190 -193 -287 -360 -559 -474 -770 -23 -44 -46 -84 -50 -90 -27 -37
-248 -472 -330 -650 -138 -296 -295 -682 -420 -1035 -21 -58 -43 -118 -49
-135 -7 -16 -12 -32 -12 -35 0 -3 -12 -43 -26 -90 -15 -47 -28 -88 -29 -92 -1
-5 -2 -9 -4 -10 -1 -2 -3 -10 -5 -18 -1 -8 -10 -39 -19 -67 -39 -127 -48 -159
-51 -173 -2 -8 -20 -73 -40 -145 -53 -190 -130 -511 -169 -707 -18 -88 -27
-137 -32 -163 -6 -36 -23 -133 -28 -160 -2 -11 -9 -54 -16 -95 -6 -41 -14 -86
-16 -100 -7 -40 -32 -211 -39 -260 -3 -25 -8 -56 -10 -70 -3 -14 -7 -52 -10
-85 -3 -33 -7 -71 -10 -85 -2 -14 -6 -56 -10 -95 -3 -38 -8 -88 -10 -110 -8
-72 -14 -148 -21 -240 -3 -49 -7 -103 -9 -120 -13 -142 -20 -414 -20 -815 0
-410 4 -545 20 -765 7 -101 17 -233 20 -265 2 -19 7 -71 10 -115 4 -44 8 -87
10 -95 3 -13 13 -108 20 -180 5 -47 17 -145 21 -165 2 -11 7 -40 10 -65 10
-82 23 -165 30 -205 2 -11 11 -63 19 -115 9 -52 34 -185 56 -295 23 -110 43
-209 45 -220 2 -11 6 -29 8 -41 12 -58 99 -420 103 -426 2 -5 6 -16 8 -25 14
-70 56 -221 105 -378 23 -71 43 -137 45 -145 2 -8 4 -16 5 -17 2 -2 4 -7 5
-13 1 -5 3 -11 5 -12 1 -2 3 -10 5 -18 18 -81 216 -623 289 -795 8 -16 37 -86
67 -155 142 -335 388 -838 509 -1045 10 -16 28 -48 40 -70 13 -22 34 -60 48
-85 111 -197 353 -577 506 -793 50 -71 98 -138 106 -150 27 -40 185 -251 229
-307 24 -30 53 -68 65 -83 11 -16 26 -34 31 -40 9 -10 67 -82 155 -191 8 -10
20 -23 26 -30 5 -6 51 -58 101 -116 49 -58 101 -117 114 -131 13 -14 67 -72
119 -130 105 -116 483 -496 601 -604 106 -98 220 -200 314 -281 44 -38 85 -74
91 -79 6 -6 29 -25 50 -42 147 -119 220 -178 224 -183 3 -3 21 -17 40 -30 19
-13 44 -32 55 -42 11 -9 72 -55 135 -102 63 -47 120 -89 125 -93 6 -5 22 -16
36 -25 14 -9 33 -23 41 -30 7 -7 21 -17 30 -23 8 -5 90 -62 182 -125 92 -63
222 -150 289 -192 67 -43 127 -81 132 -85 17 -14 186 -113 192 -113 3 0 17 -8
31 -19 35 -24 263 -155 388 -222 55 -29 135 -73 179 -96 44 -24 87 -46 95 -50
8 -3 97 -46 197 -95 101 -48 185 -88 187 -88 3 0 33 -13 68 -29 140 -64 186
-84 356 -155 97 -41 258 -104 357 -141 99 -36 187 -68 195 -72 8 -3 20 -7 25
-9 24 -8 240 -84 240 -84 0 -1 7 -3 15 -5 8 -1 42 -12 75 -23 377 -126 1020
-292 1415 -365 14 -3 52 -10 85 -16 33 -6 70 -13 81 -15 12 -2 38 -7 58 -10
19 -3 75 -13 123 -21 121 -21 296 -47 408 -60 22 -3 51 -7 65 -10 14 -2 50 -7
80 -11 30 -3 66 -8 80 -10 14 -1 52 -5 85 -9 56 -5 121 -12 190 -20 17 -2 67
-6 113 -9 45 -4 101 -8 125 -11 23 -2 94 -7 157 -10 63 -4 144 -8 180 -10 237
-14 887 -20 1080 -10 41 2 138 6 215 10 134 6 164 8 320 20 176 13 204 16 221
19 11 2 57 7 104 11 47 4 93 9 103 11 10 2 45 6 78 9 33 4 68 8 78 10 10 2 42
6 72 10 30 3 65 8 79 10 14 2 45 7 70 10 257 34 908 160 1058 204 17 5 32 8
32 6 0 -3 11 0 25 5 14 5 36 12 48 14 12 2 65 16 117 31 52 14 103 28 113 30
82 18 729 223 792 250 17 7 89 35 160 61 144 52 485 191 610 249 44 20 98 45
120 55 249 113 738 369 940 491 17 10 48 28 70 40 66 36 548 347 590 381 5 4
73 52 150 107 77 54 196 142 265 195 69 53 138 107 154 119 44 32 148 118 167
136 9 9 25 23 35 31 37 29 129 105 134 110 3 3 25 23 50 44 271 236 672 631
880 866 41 47 80 90 85 96 6 6 30 34 55 64 25 29 52 60 61 69 9 9 40 45 70 81
29 36 56 67 59 70 11 9 196 245 270 345 41 55 78 105 83 110 77 99 375 530
386 560 2 5 10 18 18 27 8 9 22 30 31 46 9 16 57 94 105 173 49 79 93 151 98
159 183 300 506 947 663 1330 15 36 34 79 42 97 8 17 14 34 14 38 0 3 11 31
25 61 14 30 25 59 25 64 0 6 9 29 19 53 10 23 30 74 44 112 14 39 41 113 60
165 20 52 61 174 92 270 75 232 85 263 89 286 2 10 9 31 15 47 6 15 13 38 15
50 3 12 17 60 31 107 70 233 221 901 270 1195 9 55 18 111 21 125 2 14 6 36 8
50 4 22 12 80 32 220 2 19 7 42 9 50 4 13 114 15 910 14 l905 -1 1 21 c1 28 1
3457 0 3474 -1 9 -1374 12 -6831 12 l-6830 0 0 -1753 0 -1754 3835 1 c2550 1
3835 -2 3836 -9 2 -14 3 -5 -25 -175 -33 -196 -36 -211 -42 -232 -3 -10 -7
-28 -10 -40 -30 -161 -111 -486 -165 -663 -45 -149 -112 -349 -120 -360 -3 -5
-10 -26 -14 -45 -4 -19 -11 -39 -15 -45 -4 -5 -11 -21 -15 -35 -8 -28 -88
-234 -115 -295 -115 -264 -247 -532 -336 -682 -24 -41 -44 -76 -44 -78 0 -14
-339 -546 -360 -565 -3 -3 -23 -30 -45 -60 -22 -30 -42 -57 -45 -60 -3 -3 -18
-23 -35 -45 -16 -22 -31 -42 -34 -45 -4 -3 -25 -30 -49 -61 -23 -31 -64 -81
-90 -111 -26 -30 -69 -81 -97 -114 -159 -187 -427 -451 -674 -664 -35 -30 -69
-60 -75 -65 -6 -6 -31 -26 -56 -45 -25 -19 -50 -39 -56 -45 -6 -5 -23 -19 -38
-30 -16 -11 -33 -25 -40 -30 -6 -6 -67 -51 -136 -100 -69 -50 -126 -93 -128
-97 -2 -5 -7 -8 -12 -8 -4 0 -50 -29 -101 -63 -78 -53 -169 -110 -249 -157 -8
-5 -40 -23 -70 -41 -30 -18 -89 -50 -130 -72 -41 -22 -110 -60 -154 -84 -43
-24 -80 -43 -81 -43 -2 0 -63 -29 -136 -64 -74 -35 -173 -80 -222 -100 -48
-20 -106 -44 -130 -55 -72 -32 -335 -127 -487 -176 -179 -58 -202 -64 -229
-70 -11 -3 -29 -7 -38 -10 -39 -11 -370 -95 -393 -99 -14 -3 -36 -7 -50 -11
-35 -8 -267 -52 -314 -59 -21 -4 -41 -8 -45 -10 -3 -2 -33 -7 -66 -10 -33 -4
-71 -9 -85 -11 -44 -6 -115 -17 -132 -20 -9 -2 -52 -6 -95 -10 -43 -3 -85 -8
-93 -10 -13 -3 -67 -8 -225 -20 -303 -23 -853 -23 -1180 0 -89 6 -209 16 -240
20 -16 2 -61 7 -100 10 -38 3 -101 11 -140 16 -38 6 -88 12 -110 15 -22 3 -47
7 -55 9 -8 2 -37 7 -65 10 -27 4 -57 8 -65 11 -8 2 -38 6 -65 10 -27 3 -52 7
-55 9 -3 2 -26 6 -50 10 -25 3 -61 10 -80 15 -19 5 -48 12 -65 15 -70 12 -97
18 -235 50 -220 52 -264 64 -485 131 -202 61 -495 162 -580 199 -16 7 -50 20
-75 30 -163 61 -566 249 -740 345 -41 23 -77 41 -80 42 -5 0 -72 38 -190 107
-50 29 -51 29 -146 89 -38 24 -78 48 -88 55 -205 126 -577 397 -777 563 -262
219 -573 519 -791 764 -89 100 -106 120 -131 153 -12 16 -41 49 -64 75 -24 26
-43 50 -43 54 0 4 -8 15 -18 25 -10 10 -41 47 -68 83 -27 36 -51 67 -54 70 -6
5 -104 141 -163 225 -39 55 -195 289 -233 350 -43 67 -179 305 -221 384 -18
35 -38 70 -44 78 -6 7 -8 13 -4 13 4 0 3 6 -2 13 -20 24 -223 437 -223 453 0
2 -9 24 -20 49 -11 25 -28 64 -39 88 -70 159 -231 616 -277 787 -21 76 -20 73
-49 180 -31 112 -26 92 -64 255 -46 201 -99 468 -115 585 -12 86 -19 136 -22
154 -2 10 -6 44 -9 75 -4 31 -8 63 -10 71 -2 8 -7 47 -10 85 -3 39 -8 84 -10
100 -7 56 -20 241 -31 425 -13 220 -7 730 11 975 10 151 20 258 29 330 3 22 8
67 11 100 3 33 8 71 10 85 4 22 12 80 30 205 16 114 32 208 39 233 3 9 7 34
10 54 3 21 15 81 27 134 11 53 22 104 24 113 19 94 73 309 102 411 9 30 15 55
14 55 -1 0 7 26 18 58 11 31 18 57 15 57 -3 0 0 9 6 21 6 11 13 28 15 38 9 45
151 449 196 556 7 17 13 32 14 35 24 71 145 340 231 515 90 183 117 233 207
394 61 109 66 116 142 239 39 62 74 121 80 132 5 11 13 20 17 20 5 0 8 6 8 13
0 6 9 23 20 37 11 14 42 57 67 95 26 39 51 75 56 80 4 6 34 46 65 91 46 65
147 196 252 328 30 38 146 173 219 256 100 113 452 466 554 557 45 40 100 89
122 108 22 20 108 90 190 157 83 66 160 128 173 139 12 10 26 19 31 19 5 0 11
4 13 8 2 5 48 41 103 81 55 40 109 79 120 87 88 64 457 294 597 372 70 39 212
113 315 164 104 51 190 96 191 101 2 4 10 7 17 7 7 0 40 14 73 30 34 17 63 30
66 30 3 0 35 14 71 30 36 17 68 30 71 30 3 0 20 7 37 15 75 34 295 119 337
130 8 2 60 20 115 40 55 20 105 37 110 39 6 1 37 11 70 21 33 10 65 19 70 21
6 1 51 14 100 29 97 29 491 130 540 139 25 4 203 40 256 51 9 2 34 6 55 10 71
11 99 15 124 20 14 3 48 7 75 11 28 3 57 8 66 9 19 4 115 17 144 20 56 5 162
18 179 21 10 2 59 6 110 10 50 4 107 8 126 9 343 27 950 27 1270 0 25 -2 78
-7 118 -10 40 -4 83 -8 95 -10 12 -2 49 -6 82 -10 33 -4 74 -8 90 -11 17 -2
46 -6 65 -8 30 -4 86 -13 260 -41 25 -4 158 -29 215 -40 29 -6 324 -72 355
-80 53 -13 180 -49 265 -75 55 -17 105 -32 110 -33 101 -29 344 -113 400 -137
11 -5 52 -21 90 -36 39 -15 88 -35 110 -44 22 -10 68 -30 103 -44 215 -90 532
-251 777 -396 123 -72 405 -253 438 -280 7 -6 59 -44 117 -85 133 -95 334
-254 406 -320 6 -5 35 -30 64 -55 233 -195 634 -609 815 -842 33 -42 63 -77
66 -78 6 0 117 106 364 345 39 39 172 167 295 285 123 118 256 247 295 285 92
89 498 481 580 560 34 33 165 159 290 280 126 121 258 249 295 285 37 36 156
151 264 255 108 105 221 214 251 243 30 29 55 56 55 60 0 8 -6 16 -114 146
-228 275 -642 703 -916 946 -40 36 -81 72 -89 81 -9 8 -56 49 -106 90 -49 41
-106 89 -125 106 -19 18 -38 33 -41 33 -3 0 -17 10 -30 21 -13 12 -40 33 -59
48 -19 14 -37 28 -40 31 -3 3 -25 21 -50 40 -25 19 -46 38 -48 42 -2 4 -8 8
-13 8 -9 0 -82 52 -99 70 -11 12 -151 111 -240 170 -52 35 -96 67 -98 72 -2 4
-8 8 -13 8 -5 0 -60 33 -122 73 -184 121 -226 147 -236 147 -5 0 -11 3 -13 8
-3 7 -158 103 -188 116 -8 3 -28 15 -45 25 -16 11 -68 40 -115 66 -47 25 -92
50 -100 55 -71 45 -631 314 -815 391 -161 68 -183 78 -207 90 -10 5 -22 9 -28
9 -6 0 -29 9 -53 19 -23 11 -87 36 -142 56 -55 20 -118 43 -140 52 -69 27
-478 162 -551 182 -38 10 -107 30 -154 44 -73 21 -211 60 -260 73 -8 2 -33 8
-55 14 -22 6 -58 14 -80 19 -22 5 -67 16 -100 24 -101 26 -339 78 -465 102
-116 22 -201 38 -225 42 -16 2 -70 11 -120 19 -128 21 -134 22 -190 30 -27 3
-57 7 -65 9 -8 1 -40 6 -70 10 -30 4 -63 9 -72 10 -9 2 -48 7 -85 10 -37 4
-79 8 -93 10 -14 2 -52 7 -85 10 -33 3 -76 8 -95 10 -19 2 -66 7 -105 10 -38
4 -83 8 -100 10 -16 2 -86 6 -155 10 -69 4 -141 8 -160 10 -67 8 -835 25 -843
19z"/>
<path d="M23077 4634 c-2 -3 -20 -6 -38 -8 -30 -3 -110 -13 -174 -22 -11 -1
-20 -3 -20 -4 0 -2 -60 -11 -87 -13 -10 -1 -18 -5 -18 -9 0 -4 -9 -5 -20 -3
-11 2 -20 -1 -20 -6 0 -6 -4 -7 -10 -4 -5 3 -16 3 -22 -2 -7 -4 -24 -9 -38
-11 -13 -2 -30 -8 -37 -14 -7 -6 -13 -8 -13 -5 0 4 -19 -1 -42 -9 -24 -9 -47
-17 -53 -18 -5 -1 -14 -4 -20 -7 -17 -10 -90 -33 -97 -31 -5 1 -8 -2 -8 -8 0
-5 -6 -10 -12 -10 -7 0 -40 -14 -73 -30 -33 -16 -66 -30 -72 -30 -7 0 -13 -4
-13 -9 0 -5 -17 -16 -37 -25 -50 -21 -112 -57 -137 -78 -11 -10 -25 -18 -32
-18 -6 0 -15 -7 -18 -16 -3 -8 -10 -12 -16 -9 -5 3 -10 2 -10 -4 0 -5 -8 -12
-17 -15 -10 -3 -33 -20 -50 -36 -18 -17 -33 -28 -33 -24 0 4 -11 -5 -25 -20
-13 -14 -28 -26 -33 -26 -9 0 -237 -222 -290 -282 -17 -21 -32 -42 -32 -48 0
-5 -3 -10 -7 -10 -10 0 -82 -98 -149 -200 -27 -41 -53 -78 -57 -81 -5 -3 -9
-10 -9 -15 1 -5 -23 -56 -52 -114 -80 -159 -158 -369 -181 -489 -2 -13 -6 -30
-9 -39 -6 -18 -13 -57 -22 -112 -3 -19 -7 -46 -10 -60 -31 -183 -24 -584 13
-730 3 -14 6 -28 5 -33 -1 -4 3 -26 8 -50 10 -41 20 -81 24 -102 5 -26 59
-194 71 -220 7 -16 24 -59 38 -95 31 -79 103 -220 152 -295 19 -31 35 -58 35
-61 0 -3 33 -48 73 -101 39 -53 77 -103 82 -111 6 -8 19 -24 30 -36 11 -12 32
-36 47 -53 14 -17 33 -35 40 -40 8 -4 24 -21 36 -37 12 -16 22 -27 22 -24 0 2
26 -21 58 -51 32 -31 76 -69 97 -86 21 -16 44 -36 52 -43 7 -7 13 -11 13 -7 0
3 12 -6 27 -20 15 -14 31 -25 35 -25 3 0 13 -7 21 -15 8 -8 28 -22 45 -32 17
-10 56 -34 89 -53 32 -19 61 -33 66 -32 4 1 7 -2 7 -7 0 -9 40 -27 49 -22 2 2
7 -1 10 -6 9 -13 130 -70 204 -94 20 -7 37 -16 37 -19 0 -4 6 -7 13 -8 18 -1
48 -9 95 -26 23 -8 42 -13 42 -10 0 2 14 -2 30 -11 17 -9 30 -14 30 -11 0 2
20 -2 45 -10 25 -7 45 -10 45 -7 0 3 6 1 13 -4 6 -5 24 -9 40 -8 15 0 27 -2
27 -5 0 -5 39 -11 93 -13 9 -1 17 -4 17 -7 0 -5 84 -12 187 -14 35 0 63 -5 63
-9 0 -5 4 -6 9 -3 4 3 63 7 130 8 66 2 121 5 121 8 0 3 15 5 33 6 17 0 57 4
87 8 30 4 69 9 85 11 17 2 30 4 30 5 0 3 39 10 67 13 16 1 28 6 28 11 0 5 3 7
6 3 3 -3 23 1 45 8 22 8 43 15 47 15 4 0 23 5 42 10 19 5 37 9 40 8 3 -1 16 5
30 12 14 8 33 15 43 17 10 2 28 9 40 15 12 7 25 13 30 14 4 1 9 3 12 4 3 1 9
3 14 4 5 0 13 4 17 9 4 4 16 7 26 7 10 0 18 4 18 8 0 4 23 16 50 26 28 10 50
21 50 25 0 6 45 26 64 28 5 1 12 5 15 10 3 5 33 24 65 42 100 56 290 198 376
281 14 14 45 42 68 62 23 21 40 38 37 38 -4 0 59 71 113 126 12 13 22 27 22
33 0 5 3 11 8 13 13 5 72 85 72 97 0 6 4 11 8 11 4 0 16 15 27 33 10 17 21 34
25 37 10 8 90 151 90 161 0 5 4 9 10 9 5 0 9 3 9 8 -3 13 34 92 43 92 4 0 8 6
8 13 0 8 15 49 34 93 57 130 122 361 141 501 3 21 7 47 10 58 9 43 19 205 19
305 -1 199 -17 346 -59 538 -23 102 -78 270 -122 372 -33 76 -108 225 -115
228 -5 2 -8 8 -8 13 0 26 -167 264 -256 366 -62 69 -203 213 -210 213 -3 0
-15 10 -28 23 -71 68 -292 227 -316 227 -5 0 -10 5 -10 11 0 5 -4 8 -8 5 -5
-3 -18 4 -30 14 -12 11 -28 20 -37 20 -8 0 -15 5 -15 10 0 6 -9 10 -20 10 -11
0 -20 5 -20 10 0 6 -7 10 -15 10 -8 0 -15 5 -15 12 0 6 -3 8 -7 5 -3 -4 -12
-2 -20 4 -7 6 -13 8 -13 5 0 -4 -13 2 -30 14 -16 12 -30 19 -30 15 0 -3 -10 0
-22 7 -13 7 -26 13 -30 14 -5 1 -10 3 -13 4 -3 1 -8 3 -12 5 -5 1 -21 7 -38
14 -31 14 -51 19 -73 20 -7 1 -10 5 -7 11 3 6 -1 7 -9 4 -9 -3 -16 -2 -16 3 0
5 -13 10 -29 11 -16 1 -48 9 -71 17 -23 8 -46 12 -51 9 -5 -3 -9 0 -9 6 0 6
-6 10 -12 9 -7 -1 -29 1 -48 5 -19 4 -45 8 -57 9 -13 1 -23 4 -23 8 0 4 -10 7
-22 7 -26 0 -99 9 -143 17 -39 8 -401 15 -408 9z"/>
</g>
</svg>
